<svg height="50" width="96" xmlns="http://www.w3.org/2000/svg"><path d="M3.035 13.323v11.054a4.752 4.752 0 0 1 3.871-1.858c3.44 0 6.349 2.6 6.349 6.846 0 3.593-2.29 6.935-6.316 6.935a5.006 5.006 0 0 1-3.904-1.765v1.362H0v-22.58h3.035zm3.5 11.935c-1.935 0-3.683 1.361-3.683 4.213.01 2.713 1.76 4.116 3.683 4.116 2.2 0 3.623-1.89 3.623-4.148 0-2.336-1.426-4.194-3.623-4.194zM24.5 24.39v-1.516h3.035V35.9H24.5v-1.365a5.006 5.006 0 0 1-3.897 1.765c-4.032 0-6.322-3.358-6.322-6.935 0-4.242 2.903-6.846 6.348-6.846a4.752 4.752 0 0 1 3.871 1.858zm-3.5.855c-2.2 0-3.623 1.858-3.623 4.18 0 2.262 1.423 4.162 3.623 4.162 1.935 0 3.684-1.393 3.684-4.12 0-2.857-1.765-4.222-3.684-4.222zm16.88-.432a4.477 4.477 0 0 0-1.486-1.613 4.08 4.08 0 0 0-2.417-.68c-1.612 0-2.6.619-3.19 1.238a4.071 4.071 0 0 0-1.084 2.787 2.842 2.842 0 0 0 .932 2.203c.534.469 1.14.846 1.797 1.117l1.116.525a4 4 0 0 1 1.29.807c.26.264.405.62.404.99a1.539 1.539 0 0 1-.432 1.023 1.826 1.826 0 0 1-1.239.432 1.858 1.858 0 0 1-1.332-.497 3.432 3.432 0 0 1-.713-1.239l-2.478 1.178a5.08 5.08 0 0 0 1.671 2.384c.82.587 1.813.881 2.82.835 1.361 0 2.632-.342 3.655-1.455a4.329 4.329 0 0 0 1.151-2.974 3.226 3.226 0 0 0-.968-2.416 6.258 6.258 0 0 0-1.825-1.206l-1.549-.775c-.645-.342-.835-.403-1.022-.525a.835.835 0 0 1-.433-.742c0-.255.1-.5.278-.681a1.29 1.29 0 0 1 .935-.329c.774.017 1.48.441 1.858 1.116zm1.74-1.936V35.9h3.035V22.861h-3.036zm-.433-5.419a1.952 1.952 0 1 0 3.903 0 1.952 1.952 0 0 0-3.903 0zm15.952 5.977a7 7 0 0 0-3.549-.929c-2.58 0-4.213.897-5.232 1.936a6.965 6.965 0 0 0-1.98 5.048c0 2.384.928 3.933 1.857 4.894 1.24 1.29 2.788 1.935 4.955 1.935 2.013 0 3.226-.558 3.965-1.022v-3.394a5.08 5.08 0 0 1-3.765 1.684 3.942 3.942 0 0 1-2.755-1.052 4.32 4.32 0 0 1-1.177-3.129 4.168 4.168 0 0 1 1.116-3.003 3.903 3.903 0 0 1 2.88-1.145c.93 0 2.291.248 3.685 1.613v-3.423zm10.996.93v-1.517h3.036V35.9h-3.036v-1.365a5.006 5.006 0 0 1-3.903 1.765c-4.026 0-6.316-3.345-6.316-6.935 0-4.242 2.903-6.846 6.349-6.846a4.752 4.752 0 0 1 3.87 1.858zm-3.5.88c-2.2 0-3.622 1.858-3.622 4.194 0 2.258 1.426 4.148 3.622 4.148 1.936 0 3.684-1.393 3.684-4.12.004-2.857-1.764-4.222-3.684-4.222zm8.923-11.935v22.58h3.036V13.31H71.57zm5.423 0v22.58h3.035V13.31zm4.464 29.677l4.8-9.132-5.574-10.994h3.655l3.716 7.62 3.777-7.623h3.407l-10.374 20.13zM5.132 30.09a2.42 2.42 0 1 1 0-4.838 2.42 2.42 0 0 1 0 4.838zm14.516 0a2.42 2.42 0 1 1 0-4.838 2.42 2.42 0 0 1 0 4.838z" fill="#fff"/></svg>